<svg xmlns="http://www.w3.org/2000/svg" xmlns:xlink="http://www.w3.org/1999/xlink" viewBox="0 0 1036.3 289.24"><defs><style>.cls-1{fill:url(#Degradado_sin_nombre_34);}.cls-2{fill:url(#Degradado_sin_nombre_12);}.cls-3{fill:#3a3a3a;}</style><linearGradient id="Degradado_sin_nombre_34" x1="277.09" y1="-947.4" x2="277.09" y2="-726.02" gradientTransform="translate(641.08 933.19) rotate(-45)" gradientUnits="userSpaceOnUse"><stop offset="0.01" stop-color="#6cebdc"/><stop offset="1" stop-color="#1b8a11"/></linearGradient><linearGradient id="Degradado_sin_nombre_12" x1="205.78" y1="-1018.72" x2="205.78" y2="-798.57" gradientTransform="translate(641.08 933.19) rotate(-45)" gradientUnits="userSpaceOnUse"><stop offset="0" stop-color="#fc0a32"/><stop offset="1" stop-color="#0a26fc"/></linearGradient></defs><title>Recurso 15</title><g id="Capa_2" data-name="Capa 2"><g id="Capa_1-2" data-name="Capa 1"><path class="cls-1" d="M378.16,120.53,267.38,9.75a33.3,33.3,0,0,0-47.09,0L109.51,120.53a33.3,33.3,0,0,0,0,47.09l25.79,25.79,25.09-25.09L141.47,149.4a7.8,7.8,0,0,1,0-11l97.22-97.22a7.8,7.8,0,0,1,11,0l96.55,96.55a7.8,7.8,0,0,1,0,11l-97.22,97.22a7.8,7.8,0,0,1-11,0l-18.43-18.43L194.5,252.61l25.79,25.79a33.3,33.3,0,0,0,47.09,0L378.16,167.62A33.3,33.3,0,0,0,378.16,120.53Z"/><path class="cls-2" d="M9.75,168.71,120.53,279.49a33.3,33.3,0,0,0,47.09,0L278.4,168.71a33.29,33.29,0,0,0,0-47.08L252.61,95.84l-25.09,25.08,18.92,18.92a7.8,7.8,0,0,1,0,11l-97.22,97.23a7.81,7.81,0,0,1-11,0L41.59,151.6a7.8,7.8,0,0,1,0-11l97.22-97.23a7.8,7.8,0,0,1,11,0l18.43,18.43,25.09-25.09L167.62,10.85a33.3,33.3,0,0,0-47.09,0L9.75,121.63A33.29,33.29,0,0,0,9.75,168.71Z"/><path class="cls-3" d="M413,251.79a2.36,2.36,0,0,0,1.73-.72,2.49,2.49,0,0,0,.75-1.72V227.86a2.46,2.46,0,0,0-2.48-2.4h-.5v-.39h11.77l0,.39h-.46a2.44,2.44,0,0,0-1.74.69,2.24,2.24,0,0,0-.74,1.71v21.49a2.29,2.29,0,0,0,.74,1.72,2.39,2.39,0,0,0,1.74.72h.46l0,.38H412.45v-.38Z"/><path class="cls-3" d="M443.94,228.94h10.88v.39h-.66a2.13,2.13,0,0,0-1.49.54,1.9,1.9,0,0,0-.64,1.39v16.93a20.5,20.5,0,0,0,.31,3.95l.08.54h-.35L434.29,237v12.82a2,2,0,0,0,.64,1.42,2.12,2.12,0,0,0,1.49.56h.66v.38H426.24v-.38h.62a2.21,2.21,0,0,0,1.51-.56,1.85,1.85,0,0,0,.61-1.42v-17a20.2,20.2,0,0,0-.3-3.83l-.08-.54.35,0L446.68,244V231.3a1.84,1.84,0,0,0-.6-1.41,2.06,2.06,0,0,0-1.49-.56h-.65Z"/><path class="cls-3" d="M460.06,249.41q-3.46-3.24-3.46-8.89t3.46-8.87q3.46-3.21,9.55-3.21a29.63,29.63,0,0,1,5.34.48,16.09,16.09,0,0,1,4.26,1.3v6.15h-.31q-1.69-6.37-8.13-6.38a7.21,7.21,0,0,0-6.14,2.8c-1.41,1.88-2.11,4.48-2.11,7.83s.64,5.93,1.92,7.76a6.25,6.25,0,0,0,5.44,2.75,6.7,6.7,0,0,0,3.48-.91,4.38,4.38,0,0,0,2.06-2.62l0-4.64a1.45,1.45,0,0,0-.45-1.14,1.77,1.77,0,0,0-1.26-.41h-.54v-.31h10v.31h-.46c-1.14,0-1.71.52-1.71,1.55v5.19a11.42,11.42,0,0,1-4.57,3.13,17.49,17.49,0,0,1-7,1.4Q463.53,252.64,460.06,249.41Z"/><path class="cls-3" d="M502.41,252.17H484.17v-.38h.46a2.08,2.08,0,0,0,1.49-.58,2,2,0,0,0,.64-1.44V231.34a2.08,2.08,0,0,0-2.13-2h-.46v-.39H497.8a14.59,14.59,0,0,0,2.28-.19,9.67,9.67,0,0,0,1.75-.39v6.16h-.39v-.35a3.72,3.72,0,0,0-.93-2.68,3.55,3.55,0,0,0-2.59-1h-5.58v9.41h4.41a2.94,2.94,0,0,0,2.13-.89,3,3,0,0,0,.82-2.17v-.27h.38v8.21h-.38v-.27a2.84,2.84,0,0,0-1.36-2.64,2.93,2.93,0,0,0-1.55-.42h-4.45v9.18H497a6.2,6.2,0,0,0,4.08-1.5,8.28,8.28,0,0,0,2.46-4.08h.35Z"/><path class="cls-3" d="M523.16,228.94h10.89v.39h-.66a2.13,2.13,0,0,0-1.49.54,1.9,1.9,0,0,0-.64,1.39v16.93a20.5,20.5,0,0,0,.31,3.95l.08.54h-.35L513.52,237v12.82a2,2,0,0,0,.64,1.42,2.12,2.12,0,0,0,1.49.56h.66v.38H505.47v-.38h.62a2.21,2.21,0,0,0,1.51-.56,1.85,1.85,0,0,0,.61-1.42v-17a20.2,20.2,0,0,0-.3-3.83l-.08-.54.35,0L525.91,244V231.3a1.84,1.84,0,0,0-.6-1.41,2.06,2.06,0,0,0-1.49-.56h-.66Z"/><path class="cls-3" d="M536.14,251.79h.46a2.28,2.28,0,0,0,1.59-.6,1.9,1.9,0,0,0,.66-1.45V231.38a1.88,1.88,0,0,0-.66-1.45,2.28,2.28,0,0,0-1.59-.6h-.46v-.39h11v.39h-.46a2.26,2.26,0,0,0-1.55.58,2,2,0,0,0-.7,1.43v18.4a2,2,0,0,0,.7,1.47,2.31,2.31,0,0,0,1.55.58h.46v.38h-11Z"/><path class="cls-3" d="M567.77,252.17H549.53v-.38H550a2.08,2.08,0,0,0,2.13-2V231.34a2.08,2.08,0,0,0-2.13-2h-.47v-.39h13.63a14.81,14.81,0,0,0,2.29-.19,9.51,9.51,0,0,0,1.74-.39v6.16h-.39v-.35a3.72,3.72,0,0,0-.93-2.68,3.53,3.53,0,0,0-2.59-1H557.7v9.41h4.42a3,3,0,0,0,2.13-.89,3,3,0,0,0,.81-2.17v-.27h.39v8.21h-.39v-.27a2.84,2.84,0,0,0-1.36-2.64,2.92,2.92,0,0,0-1.54-.42H557.7v9.18h4.65a6.25,6.25,0,0,0,4.09-1.5,8.27,8.27,0,0,0,2.45-4.08h.35Z"/><path class="cls-3" d="M580.82,230.53h-1.24v19.21a1.93,1.93,0,0,0,.64,1.49,2.16,2.16,0,0,0,1.45.56h.43v.38H571.45v-.38h.46a2.06,2.06,0,0,0,1.46-.58,1.93,1.93,0,0,0,.6-1.44V231.34a1.91,1.91,0,0,0-.6-1.43,2,2,0,0,0-1.42-.58h-.5v-.39h11.89a11.56,11.56,0,0,1,5.85,1.36,5.3,5.3,0,0,1,2.63,5,6.53,6.53,0,0,1-1.36,4.05,5.82,5.82,0,0,1-4,2.19,5.73,5.73,0,0,1,2.07,1.31,10,10,0,0,1,1.64,2,38,38,0,0,0,2.6,4,10.17,10.17,0,0,0,2.18,2.38,3.62,3.62,0,0,0,2,.55v.38h-3.25a12.38,12.38,0,0,1-4.94-.77,7.32,7.32,0,0,1-3.08-2.94,21.22,21.22,0,0,1-2.6-5.27,4.46,4.46,0,0,0-1.1-1.74,2.28,2.28,0,0,0-1.22-.66v-.31h1q3.3,0,4-3.87a4.18,4.18,0,0,0,.15-1c0-.28,0-.68,0-1.18a4.45,4.45,0,0,0-.48-1.7,3.13,3.13,0,0,0-1.14-1.38,4.93,4.93,0,0,0-2.48-.77A9.54,9.54,0,0,0,580.82,230.53Z"/><path class="cls-3" d="M607.16,252.17H596.62v-.38h.43a2,2,0,0,0,2.05-2V231.38a2,2,0,0,0-2.05-2h-.43v-.39h10.54v.39h-.39a2,2,0,0,0-1.45.58,2.08,2.08,0,0,0-.64,1.47v18.36a2.08,2.08,0,0,0,.64,1.47,2,2,0,0,0,1.45.58h.39Zm-5.7-25.63-.27-.27a28.76,28.76,0,0,1,5.54-6.39,5.29,5.29,0,0,1,2.64,3.17A26.58,26.58,0,0,1,601.46,226.54Z"/><path class="cls-3" d="M634.26,251.79h.31v.38H623.18v-.38h.32a1.33,1.33,0,0,0,1.12-.47,1.47,1.47,0,0,0,.35-.85,2.43,2.43,0,0,0-.16-.81l-1.51-3.56h-8.21l-1.55,3.6a2.13,2.13,0,0,0-.15.79,1.35,1.35,0,0,0,.37.85,1.37,1.37,0,0,0,1.14.45h.31v.38h-7.75v-.38h.31a3,3,0,0,0,1.63-.51,3.58,3.58,0,0,0,1.32-1.51l8-17.19a23.33,23.33,0,0,0,1.78-4.72h.35l10.38,21.76a3.55,3.55,0,0,0,1.34,1.64A3.1,3.1,0,0,0,634.26,251.79Zm-18.51-7.21h6.89l-3.4-8.09Z"/><path class="cls-3" d="M662.65,252.17H644.41v-.38h.46a2.08,2.08,0,0,0,1.49-.58,2,2,0,0,0,.64-1.44V231.34a2.08,2.08,0,0,0-2.13-2h-.46v-.39H658a14.59,14.59,0,0,0,2.28-.19,9.67,9.67,0,0,0,1.75-.39v6.16h-.39v-.35a3.72,3.72,0,0,0-.93-2.68,3.55,3.55,0,0,0-2.59-1h-5.58v9.41H657a2.94,2.94,0,0,0,2.13-.89,3,3,0,0,0,.82-2.17v-.27h.38v8.21h-.38v-.27a2.84,2.84,0,0,0-1.36-2.64,2.93,2.93,0,0,0-1.55-.42h-4.45v9.18h4.65a6.2,6.2,0,0,0,4.08-1.5,8.35,8.35,0,0,0,2.46-4.08h.35Z"/><path class="cls-3" d="M683.4,228.94h10.89v.39h-.66a2.13,2.13,0,0,0-1.49.54,1.9,1.9,0,0,0-.64,1.39v16.93a20.5,20.5,0,0,0,.31,3.95l.07.54h-.34L673.76,237v12.82a2,2,0,0,0,.64,1.42,2.12,2.12,0,0,0,1.49.56h.66v.38H665.71v-.38h.62a2.21,2.21,0,0,0,1.51-.56,1.85,1.85,0,0,0,.61-1.42v-17a20.2,20.2,0,0,0-.3-3.83l-.08-.54.35,0L686.15,244V231.3a1.84,1.84,0,0,0-.6-1.41,2.06,2.06,0,0,0-1.49-.56h-.66Z"/><path class="cls-3" d="M741.41,251.79H742v.38H730.41v-.34H731a1.63,1.63,0,0,0,1.13-.55,1.31,1.31,0,0,0,.38-1.12L731,236.1l-7.28,12.55a9.07,9.07,0,0,0-1.47,4.3h-.39l-10-16.73-1.51,13.94a1.41,1.41,0,0,0,.39,1.14,1.45,1.45,0,0,0,1.12.53h.59v.34h-8.1v-.38H705a2.86,2.86,0,0,0,1.88-.66,2.72,2.72,0,0,0,1-1.78l3.21-24.82h.35l12,19.74L735,224.53h.34l3.3,24.82a2.82,2.82,0,0,0,2.82,2.44Z"/><path class="cls-3" d="M767.43,251.79h.31v.38H756.36v-.38h.31a1.3,1.3,0,0,0,1.12-.47,1.47,1.47,0,0,0,.35-.85,2.4,2.4,0,0,0-.15-.81l-1.52-3.56h-8.21l-1.54,3.6a2,2,0,0,0-.16.79,1.35,1.35,0,0,0,.37.85,1.37,1.37,0,0,0,1.14.45h.31v.38h-7.74v-.38H741a3,3,0,0,0,1.62-.51,3.58,3.58,0,0,0,1.32-1.51l8-17.19a24.38,24.38,0,0,0,1.79-4.72H754l10.38,21.76a3.55,3.55,0,0,0,1.34,1.64A3.13,3.13,0,0,0,767.43,251.79Zm-18.51-7.21h6.89l-3.4-8.09Z"/><path class="cls-3" d="M785.09,228.94H796v.39h-.66a2.13,2.13,0,0,0-1.49.54,1.9,1.9,0,0,0-.64,1.39v16.93a20.5,20.5,0,0,0,.31,3.95l.07.54h-.35L775.45,237v12.82a2,2,0,0,0,.64,1.42,2.12,2.12,0,0,0,1.49.56h.66v.38H767.4v-.38H768a2.21,2.21,0,0,0,1.51-.56,1.85,1.85,0,0,0,.61-1.42v-17a20.2,20.2,0,0,0-.3-3.83l-.08-.54.35,0L787.84,244V231.3a1.84,1.84,0,0,0-.6-1.41,2.06,2.06,0,0,0-1.49-.56h-.66Z"/><path class="cls-3" d="M819.17,234.44v-.35a3.63,3.63,0,0,0-.93-2.63,3.54,3.54,0,0,0-2.59-1h-4.5v19.32a2.07,2.07,0,0,0,.66,1.44,2.11,2.11,0,0,0,1.47.58h.43v.38H803v-.38h.39a2.16,2.16,0,0,0,1.51-.58,2,2,0,0,0,.62-1.47V230.45h-4.46a3.35,3.35,0,0,0-3.56,3.64v.35h-.38v-6.12a10.74,10.74,0,0,0,1.8.39,14.74,14.74,0,0,0,2.26.19h14.29a12.86,12.86,0,0,0,2.81-.25,12,12,0,0,0,1.26-.33v6.12Z"/><path class="cls-3" d="M839.85,252.17H821.61v-.38h.46a2.08,2.08,0,0,0,1.49-.58,2,2,0,0,0,.64-1.44V231.34a2.08,2.08,0,0,0-2.13-2h-.46v-.39h13.63a14.59,14.59,0,0,0,2.28-.19,9.67,9.67,0,0,0,1.75-.39v6.16h-.39v-.35a3.72,3.72,0,0,0-.93-2.68,3.53,3.53,0,0,0-2.59-1h-5.58v9.41h4.41a2.94,2.94,0,0,0,2.13-.89,3,3,0,0,0,.82-2.17v-.27h.38v8.21h-.38v-.27a2.84,2.84,0,0,0-1.36-2.64,2.93,2.93,0,0,0-1.55-.42h-4.45v9.18h4.65a6.2,6.2,0,0,0,4.08-1.5,8.21,8.21,0,0,0,2.46-4.08h.35Z"/><path class="cls-3" d="M860.61,228.94h10.88v.39h-.66a2.13,2.13,0,0,0-1.49.54,1.9,1.9,0,0,0-.64,1.39v16.93a20.5,20.5,0,0,0,.31,3.95l.08.54h-.35L851,237v12.82a2,2,0,0,0,.64,1.42,2.12,2.12,0,0,0,1.49.56h.66v.38H842.91v-.38h.62a2.21,2.21,0,0,0,1.51-.56,1.85,1.85,0,0,0,.61-1.42v-17a20.2,20.2,0,0,0-.3-3.83l-.08-.54.35,0L863.35,244V231.3a1.84,1.84,0,0,0-.6-1.41,2.06,2.06,0,0,0-1.49-.56h-.65Z"/><path class="cls-3" d="M873.58,251.79H874a2.28,2.28,0,0,0,1.59-.6,1.9,1.9,0,0,0,.66-1.45V231.38a1.88,1.88,0,0,0-.66-1.45,2.28,2.28,0,0,0-1.59-.6h-.46v-.39h11v.39h-.46a2.26,2.26,0,0,0-1.55.58,2,2,0,0,0-.7,1.43v18.4a2,2,0,0,0,.7,1.47,2.31,2.31,0,0,0,1.55.58h.46v.38h-11Z"/><path class="cls-3" d="M919.16,251.79h.54v.38H908.93v-.38h.54a1.17,1.17,0,0,0,1.07-.51,1.46,1.46,0,0,0,.25-1l-1.51-11.08-6.16,9.8a7.61,7.61,0,0,0-1.39,3.95h-.35l-8.94-13.55-1.32,10.88a1.43,1.43,0,0,0,.27,1,1.18,1.18,0,0,0,1.05.51H893v.38h-7.36v-.38h.54a2.69,2.69,0,0,0,1.69-.56,2.25,2.25,0,0,0,.83-1.53l3-21.26H892l11,16.38,10.26-16.38h.35l3.1,21.45a2.21,2.21,0,0,0,.89,1.39A2.6,2.6,0,0,0,919.16,251.79Z"/><path class="cls-3" d="M920.63,251.79h.46a2.28,2.28,0,0,0,1.59-.6,1.9,1.9,0,0,0,.66-1.45V231.38a1.88,1.88,0,0,0-.66-1.45,2.28,2.28,0,0,0-1.59-.6h-.46v-.39h11v.39h-.47a2.26,2.26,0,0,0-1.55.58,2,2,0,0,0-.7,1.43v18.4a2,2,0,0,0,.7,1.47,2.31,2.31,0,0,0,1.55.58h.47v.38h-11Z"/><path class="cls-3" d="M952.26,252.17H934v-.38h.46a2.08,2.08,0,0,0,1.49-.58,2,2,0,0,0,.64-1.44V231.34a2.08,2.08,0,0,0-2.13-2H934v-.39h13.63a14.68,14.68,0,0,0,2.28-.19,9.31,9.31,0,0,0,1.74-.39v6.16h-.38v-.35a3.72,3.72,0,0,0-.93-2.68,3.56,3.56,0,0,0-2.6-1H942.2v9.41h4.41a2.94,2.94,0,0,0,2.13-.89,3,3,0,0,0,.81-2.17v-.27h.39v8.21h-.39v-.27a2.85,2.85,0,0,0-1.35-2.64,2.93,2.93,0,0,0-1.55-.42H942.2v9.18h4.64a6.23,6.23,0,0,0,4.09-1.5,8.35,8.35,0,0,0,2.46-4.08h.35Z"/><path class="cls-3" d="M973,228.94H983.9v.39h-.65a2.18,2.18,0,0,0-1.5.54,1.89,1.89,0,0,0-.63,1.39v16.93a21.45,21.45,0,0,0,.3,3.95l.08.54h-.35L963.38,237v12.82a2,2,0,0,0,.64,1.42,2.1,2.1,0,0,0,1.49.56h.66v.38H955.32v-.38h.62a2.17,2.17,0,0,0,1.51-.56,1.82,1.82,0,0,0,.62-1.42v-17a19.31,19.31,0,0,0-.31-3.83l-.07-.54.34,0L975.77,244V231.3a1.84,1.84,0,0,0-.6-1.41,2.08,2.08,0,0,0-1.49-.56H973Z"/><path class="cls-3" d="M1007.1,234.44v-.35a3.63,3.63,0,0,0-.93-2.63,3.56,3.56,0,0,0-2.59-1h-4.5v19.32a2.07,2.07,0,0,0,.66,1.44,2.1,2.1,0,0,0,1.47.58h.43v.38H991v-.38h.39a2.16,2.16,0,0,0,1.51-.58,2,2,0,0,0,.62-1.47V230.45H989a3.35,3.35,0,0,0-3.56,3.64v.35h-.39v-6.12a11.24,11.24,0,0,0,1.8.39,15,15,0,0,0,2.27.19h14.29a12.86,12.86,0,0,0,2.81-.25,12,12,0,0,0,1.26-.33v6.12Z"/><path class="cls-3" d="M1008.88,240.56a11.13,11.13,0,0,1,3.74-8.85q3.74-3.27,10-3.27t10,3.27a12.3,12.3,0,0,1,0,17.7q-3.76,3.27-9.95,3.27t-10-3.27A11.15,11.15,0,0,1,1008.88,240.56Zm5.92,0a12.65,12.65,0,0,0,2.12,7.72,7,7,0,0,0,11.3,0,15.2,15.2,0,0,0,0-15.45,7,7,0,0,0-11.3,0A12.69,12.69,0,0,0,1014.8,240.56Z"/><path class="cls-3" d="M505,147.1H443.69l-16.78,45.19H408.12L466.51,36.7h16.77l58.39,155.59H521.76Zm-5.81-15.66L474.34,64.33l-24.95,67.11Z"/><path class="cls-3" d="M664.52,192.29H642.33L585.24,123v69.34h-20V40.79q20.65-4.09,35.34-4.09,25.62,0,40.08,11.76t14.47,30q0,18.23-13,30.26t-35,13.91ZM599.59,52.05q-8.83,0-14.35,2v53.45H588q45.93,0,45.93-28.27,0-12-10.27-19.66A40,40,0,0,0,599.59,52.05Z"/><path class="cls-3" d="M699.45,192.29H679.2V36.7h20.25v78.08l57-78.08h21l-56.37,77.18,61.29,78.41h-23.6l-59.39-75.95Z"/><path class="cls-3" d="M856.11,192.29q-55.32,0-55.33-50.35V36.7h20v99.94q0,20.66,9.5,30.37t25.06,9.71q31.49,0,31.48-43.06v-97h18.88V138.52q0,24.4-13,39.09T856.11,192.29Z"/><path class="cls-3" d="M941.12,162.76q3.06,2.18,5.62,4.25a39.86,39.86,0,0,0,5.83,3.87,51.58,51.58,0,0,0,6.76,3.11,45.88,45.88,0,0,0,17.12,3q15.93,0,21.92-7.74,5.13-6.66,5.13-13.14a31.79,31.79,0,0,0-1.31-10.2q-2.51-6.44-10-12.1-3.17-2.18-7.53-4.69l-17.88-8.83q-10-5.46-15.27-10.58a49.56,49.56,0,0,1-7.85-9.49q-5.77-9.7-5.78-25.18t11.23-26.94q11.24-11.44,29.23-11.45a66.43,66.43,0,0,1,20.55,2.95,47.33,47.33,0,0,1,14.45,7.08l-4.14,15.05a46.87,46.87,0,0,0-29.45-10q-10.35,0-16.19,6.87T957.7,76.28a23.61,23.61,0,0,0,1.63,9q2.73,7.18,11.34,12.86a54.21,54.21,0,0,0,9.38,5l17.12,8.72c3.06,1.68,5.76,3.33,8.13,5a51.82,51.82,0,0,1,7,5.95q11,11,11,28.4t-11.88,29.28q-11.9,11.9-31,11.89-20.94,0-34.46-7.42A122.23,122.23,0,0,1,934.47,178Z"/></g></g></svg>